<svg version="1.1"  xmlns="http://www.w3.org/2000/svg" xmlns:xlink="http://www.w3.org/1999/xlink" x="0px" y="0px"
	 width="100%" viewBox="0 0 496 496" enable-background="new 0 0 496 496" xml:space="preserve">
<path fill="#000000" opacity="1.000000" stroke="none" 
	d="
M227.995010,220.983383 
	C231.097885,220.413788 232.116302,222.760056 233.022583,224.858932 
	C236.705750,233.388763 236.189621,241.561569 231.204422,249.598602 
	C219.747604,268.069092 227.979950,291.306213 248.720184,297.700897 
	C260.736176,301.405670 271.896271,298.464355 280.659454,289.029968 
	C292.500610,276.281830 298.749023,261.260803 297.946594,243.657089 
	C296.581329,213.704544 276.270172,190.855118 244.477905,183.497437 
	C238.644501,182.147430 232.767609,180.972672 226.711731,181.261215 
	C225.552917,181.316452 224.375671,181.230927 223.221313,181.091370 
	C217.989944,180.458923 214.931000,177.521347 214.699753,172.968994 
	C214.447174,167.996841 216.555740,165.045303 222.150467,164.053604 
	C236.409744,161.526062 250.743759,161.439957 264.617401,165.892883 
	C302.173737,177.947159 324.110138,204.370697 328.790741,242.853134 
	C333.236877,279.407806 320.240295,310.356445 287.800140,329.769409 
	C242.696091,356.760803 184.929749,330.031067 174.389160,281.581604 
	C168.813965,255.955399 176.836075,234.236191 196.344635,216.905258 
	C201.848526,212.015747 208.909897,210.334503 216.010025,212.238663 
	C221.261002,213.646881 225.522690,213.108841 230.090683,210.341110 
	C235.251740,207.214050 241.115051,205.633331 247.090591,204.838623 
	C252.590195,204.107193 254.120667,205.404343 254.298233,210.252289 
	C254.522278,216.369461 253.531998,217.464172 247.705505,217.291168 
	C241.070251,217.094162 234.337769,216.214966 227.892395,220.828186 
	C223.436783,222.602997 220.819977,225.678024 218.007980,228.482361 
	C216.481873,230.004333 215.206070,232.085739 212.664825,230.068573 
	C210.342499,228.225174 211.870514,226.582596 212.921967,224.901230 
	C213.513138,223.955917 214.510880,223.109482 213.790863,221.742722 
	C211.916092,220.751831 209.909317,221.152985 207.959396,221.376617 
	C204.434540,221.780869 203.614487,223.956650 204.497849,227.084961 
	C206.357956,233.672211 212.808456,238.627472 219.643982,238.736374 
	C226.351379,238.843246 228.055634,237.096161 225.231232,231.217926 
	C222.896469,226.358658 223.904053,223.543930 227.995010,220.983383 
M182.088379,268.471497 
	C181.648697,280.665314 186.119019,291.313782 192.772079,301.129089 
	C215.796600,335.097321 262.369415,340.748291 291.503845,316.120026 
	C313.728821,297.332611 323.810364,272.675720 319.603912,243.559906 
	C314.764679,210.064209 296.214386,186.898422 264.130890,175.244293 
	C254.317947,171.679825 244.045792,170.928146 233.657578,172.005737 
	C244.370529,173.004745 254.394363,176.382233 264.124054,180.677078 
	C310.910309,201.329269 322.166046,260.505341 286.207245,296.570221 
	C273.709900,309.104431 254.596909,311.929626 238.741959,303.586365 
	C222.457275,295.016968 213.929504,277.399750 217.547012,259.597656 
	C218.265457,256.062134 219.339508,252.598892 220.421921,248.440125 
	C208.873566,247.553787 200.654160,241.791443 195.374313,230.754547 
	C186.459564,242.236679 181.774979,253.948318 182.088379,268.471497 
z"/>
</svg>